<?xml version="1.0" encoding="utf-8"?>
<!-- Generator: Adobe Illustrator 16.0.4, SVG Export Plug-In . SVG Version: 6.00 Build 0)  -->
<!DOCTYPE svg PUBLIC "-//W3C//DTD SVG 1.1//EN" "http://www.w3.org/Graphics/SVG/1.1/DTD/svg11.dtd">
<svg version="1.1" id="Layer_1" xmlns="http://www.w3.org/2000/svg" xmlns:xlink="http://www.w3.org/1999/xlink" x="0px" y="0px"
	 width="255.12px" height="255.12px" viewBox="0 0 255.12 255.12" enable-background="new 0 0 255.12 255.12" xml:space="preserve">
<linearGradient id="SVGID_1_" gradientUnits="userSpaceOnUse" x1="-279.874" y1="74.7515" x2="21.8052" y2="74.7515" gradientTransform="matrix(0.999 0.0453 -0.0453 0.999 261.7017 62.7588)">
	<stop  offset="0" style="stop-color:#F9B233"/>
	<stop  offset="1" style="stop-color:#E3312D"/>
</linearGradient>
<path opacity="0.55" fill="url(#SVGID_1_)" stroke="#FFFFFF" stroke-width="0.15" stroke-miterlimit="10" d="M216.007,227.899
	L216.007,227.899c-17.399,12.508-80.613,54.66-147.639,31.848c-21.852-7.426-35.668-18.894-39.344-22.06
	c-32.207-27.66-55.538-78.103-49.228-127.175C-8.695,20.862,102.441,0.45,109.597-0.773c50.479-8.643,145.459,0.738,167.83,73.734
	C292.611,122.476,265.369,187.308,216.007,227.899"/>
<linearGradient id="SVGID_2_" gradientUnits="userSpaceOnUse" x1="-4559.7847" y1="1504.6924" x2="-4236.0293" y2="1504.6924" gradientTransform="matrix(0.6615 0.7059 -0.7894 0.7601 4222.9526 2085.0771)">
	<stop  offset="0" style="stop-color:#F9B233"/>
	<stop  offset="1" style="stop-color:#E3312D"/>
</linearGradient>
<path opacity="0.55" fill="url(#SVGID_2_)" stroke="#FFFFFF" stroke-width="0.15" stroke-miterlimit="10" d="M127.065,261.083
	L127.065,261.083c-20.273-4.012-91.82-20.976-125.068-88.39c-10.842-21.982-13.42-40.83-14.049-45.924
	c-5.432-44.621,9.829-99.197,45.29-130.364C98.025-60.53,189.93,8.63,195.784,13.146c41.328,31.872,102.945,110.599,72.766,180.976
	C248.069,241.872,187.777,268.711,127.065,261.083"/>
<g>
	<g>
		<path fill="#FFFFFF" d="M129.871,28.871v9.503c0,1.296-0.332,2.417-0.995,3.337c-0.655,0.928-1.445,1.386-2.38,1.386
			c-0.93,0-1.725-0.458-2.382-1.386c-0.657-0.921-0.987-2.041-0.987-3.337v-9.503c0-1.296,0.331-2.417,0.987-3.33
			c0.658-0.94,1.453-1.399,2.382-1.399c0.935,0,1.725,0.458,2.38,1.399C129.539,26.454,129.871,27.575,129.871,28.871z"/>
	</g>
	<g>
		<path fill="#FFFFFF" d="M151.581,36.141l-6.717,6.73c-0.923,0.908-1.93,1.462-3.058,1.657c-1.127,0.182-2.008-0.062-2.672-0.714
			c-0.646-0.647-0.879-1.537-0.691-2.661c0.186-1.115,0.735-2.132,1.657-3.053l6.719-6.724c0.929-0.92,1.94-1.474,3.061-1.664
			c1.124-0.182,2.002,0.045,2.666,0.709c0.65,0.645,0.88,1.536,0.711,2.657C153.063,34.203,152.51,35.228,151.581,36.141z"/>
	</g>
	<g>
		<path fill="#FFFFFF" d="M106.233,31.376l6.718,6.724c0.922,0.921,1.47,1.938,1.664,3.053c0.187,1.124-0.042,2.013-0.706,2.661
			c-0.651,0.651-1.544,0.896-2.659,0.714c-1.126-0.195-2.146-0.749-3.059-1.657l-6.721-6.73c-0.923-0.913-1.477-1.938-1.667-3.062
			c-0.19-1.121,0.042-2.012,0.702-2.657c0.664-0.664,1.543-0.891,2.667-0.709C104.294,29.902,105.311,30.456,106.233,31.376z"/>
	</g>
</g>
<g>
	<path fill="#FFFFFF" d="M151.291,182.086c-0.409-0.191-0.856-0.289-1.325-0.32c-1.243,0.116-2.484,0.219-3.738,0.309l-19.949,2.001
		c-0.048,0.037-0.102,0.037-0.145,0.006l-17.84,1.778c-1.866,0.188-3.716,0.386-5.581,0.604c-0.505,0.061-0.965,0.204-1.396,0.445
		c-1.549,0.82-2.399,2.087-2.559,3.786c-0.04,0.398,0,0.784,0.102,1.15c0.262,0.959,0.606,1.899,1.022,2.833l0.491,0.845
		l52.884-5.263c0.36-1.175,0.676-2.355,0.928-3.544c0.085-0.373,0.085-0.741,0-1.146
		C153.812,183.943,152.847,182.772,151.291,182.086z"/>
	<path fill="#FFFFFF" d="M151.291,193.696c-0.409-0.205-0.856-0.312-1.325-0.325c-1.243,0.103-2.484,0.204-3.738,0.313
		l-19.949,1.981c-0.048,0.038-0.102,0.051-0.145,0.031l-17.84,1.771c-1.866,0.182-3.716,0.387-5.581,0.604
		c-0.505,0.06-0.965,0.205-1.396,0.435c-1.549,0.82-2.399,2.079-2.559,3.786c-0.04,0.41,0,0.795,0.102,1.163
		c0.262,0.963,0.606,1.897,1.022,2.826l0.491,0.856l52.884-5.268c0.36-1.183,0.676-2.371,0.928-3.545c0.085-0.375,0.085-0.76,0-1.14
		C153.812,195.553,152.847,194.384,151.291,193.696z"/>
	<path fill="#FFFFFF" d="M151.291,205.174c-0.409-0.193-0.856-0.301-1.325-0.325c-1.243,0.108-2.484,0.216-3.738,0.312
		l-19.949,1.989c-0.048,0.025-0.102,0.048-0.145,0.014l-17.84,1.79c-1.866,0.173-3.716,0.379-5.581,0.596
		c-0.505,0.06-0.965,0.205-1.396,0.447c-1.549,0.814-2.399,2.06-2.559,3.783c-0.04,0.398,0,0.78,0.102,1.157
		c0.262,0.954,0.606,1.895,1.022,2.822l0.491,0.862l52.884-5.275c0.36-1.169,0.676-2.36,0.928-3.544
		c0.085-0.374,0.085-0.748,0-1.146C153.812,207.019,152.847,205.854,151.291,205.174z"/>
	<path fill="#FFFFFF" d="M102.875,220.967c0.774,1.665,1.542,3.343,2.324,5.027c0.587,1.233,1.29,2.41,2.091,3.508
		c0.741,1.014,1.589,1.934,2.546,2.766c0.452,0.394,0.938,0.725,1.456,0.994c0.711,0.376,1.454,0.666,2.244,0.889
		c1.187,0.296,2.386,0.561,3.593,0.753c1.186,0.211,2.368,0.361,3.561,0.47c1.158,0.146,2.328,0.26,3.498,0.338
		c1.157,0,2.309,0,3.47-0.013c1.701-0.023,3.408-0.168,5.09-0.456c0.838-0.146,1.681-0.284,2.52-0.423
		c1.566-0.279,3.073-0.713,4.52-1.297c0.435-0.2,0.845-0.435,1.23-0.741c1.272-1.001,2.298-2.166,3.093-3.496
		c0.3-0.495,0.575-1.014,0.815-1.566c1.135-2.495,2.269-4.986,3.401-7.488c0.072-0.173,0.155-0.361,0.229-0.555l1.555-3.411
		L102.875,220.967z"/>
	<g>
		<path fill="#FFFFFF" d="M126.712,99.754c-0.029,0.338-0.036,1.046-0.029,2.067c0.006,0.093,0.006,0.18,0.006,0.277
			c0.131-0.724,0.18-1.457,0.18-2.188c-0.005-0.157-0.042-0.32-0.107-0.494C126.736,99.516,126.724,99.633,126.712,99.754z"/>
		<path fill="#FFFFFF" d="M118.864,116.985c-0.126,0.711-0.187,1.447-0.169,2.176c0,0.153,0.037,0.325,0.102,0.506
			c0.019-0.112,0.037-0.232,0.049-0.353c0.037-0.335,0.047-1.042,0.024-2.064C118.87,117.156,118.87,117.069,118.864,116.985z"/>
		<path fill="#FFFFFF" d="M113.047,99.947c-0.03,0.321-0.037,1.042-0.03,2.066c0.006,0.1,0.006,0.184,0.006,0.263
			c0.127-0.72,0.187-1.444,0.181-2.176c0-0.153-0.037-0.319-0.115-0.504C113.077,99.705,113.053,99.826,113.047,99.947z"/>
		<path fill="#FFFFFF" d="M133.209,118.777c0.038-0.34,0.038-1.06,0.032-2.067c-0.006-0.096-0.006-0.193-0.006-0.277
			c-0.134,0.723-0.181,1.457-0.175,2.188c0,0.157,0.035,0.32,0.109,0.504C133.181,119.016,133.204,118.904,133.209,118.777z"/>
		<path fill="#FFFFFF" d="M102.281,118.92c0.031-2.834,0.754-5.407,2.167-7.644l0.971-1.296c1.04-1.126,2.158-1.766,3.327-1.883
			c0.091-0.037,0.236-0.064,0.383-0.064c0.57-0.02,1.124-0.312,1.676-0.876c-0.322-1.348-0.5-2.911-0.521-4.674
			c-0.058-4.398,0.84-6.559,2.74-6.607c0.903,0,1.633,0.488,2.188,1.478c0.482,0.84,0.741,1.753,0.759,2.694
			c0.03,2.857-0.622,5.443-1.94,7.709c0.355,0.579,0.663,0.567,0.802,0.555c0,0,0.126-0.015,0.451-0.205
			c0.597-0.34,0.88-0.386,1.08-0.395c0.223-0.045,0.422-0.061,0.626-0.073h0.104c1.083,0,1.995,0.495,2.729,1.461
			c0.765-0.633,1.591-1.016,2.448-1.124c0.163-0.084,0.337-0.136,0.531-0.136c0.56-0.012,1.115-0.31,1.669-0.876
			c-0.32-1.33-0.501-2.908-0.525-4.661c-0.059-4.415,0.844-6.573,2.744-6.618c0.896,0,1.631,0.485,2.187,1.474
			c0.482,0.851,0.749,1.754,0.754,2.708c0.035,2.842-0.614,5.439-1.94,7.7c0.307,0.494,0.579,0.555,0.789,0.555
			c0.005,0,0.126,0,0.47-0.196c0.254-0.144,0.471-0.25,0.646-0.311c0.036-0.023,0.091-0.06,0.156-0.097
			c0.542-0.273,1.086-0.422,1.609-0.422c1.091-0.044,2.062,0.459,2.834,1.465c0.525-0.455,1.098-0.768,1.664-0.97
			c0.167-0.087,0.374-0.146,0.603-0.157c0.56-0.016,1.121-0.313,1.669-0.877c-0.324-1.335-0.5-2.908-0.524-4.675
			c-0.054-4.387,0.846-6.551,2.756-6.605c0.62,0,1.481,0.262,2.175,1.474c0.482,0.855,0.749,1.754,0.761,2.695
			c0.029,2.859-0.622,5.453-1.941,7.712c0.325,0.527,0.591,0.572,0.802,0.563c0,0,0.125-0.018,0.451-0.203
			c0.291-0.156,0.513-0.273,0.718-0.324c0.121-0.058,0.308-0.098,0.519-0.098c1.274,0.04,2.493,0.651,3.602,1.852l0.989,1.299
			c1.423,2.267,2.158,4.843,2.193,7.68l-0.168,1.211l0,0l0,0l0,0l-15.82,61.527l11.588-1.157c1.025-0.084,2.025-0.169,3.051-0.255
			c-0.135-4.567,0.277-9.105,1.267-13.622c1.446-7.269,5.363-14.249,11.789-20.922c3.774-3.817,7.198-7.867,10.271-12.146
			c1.545-2.236,3.039-4.534,4.461-6.854c0.988-1.634,1.93-3.303,2.81-4.985c1.122-2.149,2.146-4.337,3.074-6.573
			c0.061-0.18,0.132-0.359,0.205-0.54l0.145-0.447c1.375-4.134,2.049-8.495,2.049-13.098c0-13.312-5.737-24.678-17.252-34.088
			c-11.477-9.406-25.355-14.12-41.607-14.12c-16.242,0-30.116,4.714-41.614,14.12c-11.499,9.411-17.231,20.776-17.231,34.088
			c0,4.919,0.775,9.579,2.347,13.955c1.683,4.023,3.656,7.903,5.939,11.669c1.419,2.315,2.903,4.613,4.46,6.861
			c3.071,4.266,6.503,8.312,10.268,12.134c6.414,6.673,10.344,13.636,11.791,20.923c1.245,5.691,1.595,11.417,1.061,17.188
			c-0.022,0.354-0.005,0.692,0.015,1.018c1.586-0.193,3.18-0.375,4.769-0.519l10.142-1.02L102.281,118.92"/>
		<path fill="#FFFFFF" d="M140.371,99.344c-0.029,0.337-0.035,1.061-0.029,2.082c0.019,0.081,0.019,0.166,0.019,0.265
			c0.121-0.724,0.175-1.456,0.175-2.191c-0.006-0.156-0.043-0.313-0.109-0.488C140.401,99.105,140.389,99.223,140.371,99.344z"/>
		<path fill="#FFFFFF" d="M147.843,117.632c-0.06-1.645-0.494-3.254-1.266-4.782l-0.903-1.354c-0.494-0.578-1.024-0.94-1.564-1.048
			c-0.097,0.06-0.182,0.108-0.271,0.159c-0.55,0.259-1.091,0.42-1.61,0.431c-0.028,0-0.054,0-0.083,0
			c-1.092,0-2.014-0.504-2.743-1.468c-0.536,0.435-1.104,0.756-1.676,0.95c-0.161,0.111-0.373,0.153-0.591,0.171
			c-0.578,0.018-1.128,0.31-1.674,0.877c0.317,1.329,0.493,2.908,0.516,4.675c0.062,4.382-0.843,6.546-2.741,6.594
			c-0.893,0-1.634-0.494-2.194-1.464c-0.482-0.851-0.729-1.768-0.749-2.708c-0.034-2.844,0.615-5.439,1.942-7.701
			c-0.319-0.494-0.579-0.566-0.785-0.566c0,0-0.125,0.013-0.475,0.208c-0.253,0.138-0.471,0.238-0.646,0.311
			c-0.037,0.039-0.097,0.06-0.169,0.109c-0.53,0.25-1.073,0.396-1.591,0.406c-0.023,0-0.03,0-0.055,0
			c-1.109,0-2.036-0.477-2.778-1.464c-0.767,0.639-1.586,1.024-2.441,1.127c-0.163,0.09-0.344,0.127-0.536,0.136
			c-0.561,0.021-1.116,0.313-1.664,0.876c0.319,1.345,0.494,2.911,0.518,4.673c0.066,4.399-0.844,6.546-2.743,6.612
			c-0.892,0-1.622-0.494-2.188-1.477c-0.489-0.855-0.735-1.76-0.754-2.707c-0.043-2.847,0.609-5.445,1.94-7.7
			c-0.307-0.494-0.578-0.552-0.783-0.552c0,0-0.127,0-0.477,0.194c-0.469,0.273-0.795,0.394-1.073,0.4
			c-0.229,0.036-0.434,0.075-0.632,0.075c-1.128,0.046-2.062-0.458-2.828-1.464c-0.807,0.669-1.685,1.042-2.582,1.152
			c-0.088,0.039-0.236,0.062-0.391,0.062c-0.65,0.021-1.292,0.407-1.913,1.163l-0.917,1.372c-0.729,1.465-1.149,3.053-1.221,4.699
			l16.3,63.375l4.781-0.477c0.042,0.031,0.096,0.018,0.145-0.013l5.281-0.517L147.843,117.632z"/>
	</g>
</g>
</svg>
