<?xml version="1.0" encoding="utf-8"?>
<!-- Generator: Adobe Illustrator 16.0.4, SVG Export Plug-In . SVG Version: 6.00 Build 0)  -->
<!DOCTYPE svg PUBLIC "-//W3C//DTD SVG 1.1//EN" "http://www.w3.org/Graphics/SVG/1.1/DTD/svg11.dtd">
<svg version="1.1" id="Layer_1" xmlns="http://www.w3.org/2000/svg" xmlns:xlink="http://www.w3.org/1999/xlink" x="0px" y="0px"
	 width="74.281px" height="113.39px" viewBox="0 0 74.281 113.39" enable-background="new 0 0 74.281 113.39" xml:space="preserve">
<path fill="#FFFFFF" d="M48.766,85.751c1.438,1.752,2.181,4.07,1.757,6.536c-1.302-5.126-4.504-8.331-9.633-9.63
	c2.111-0.312,4.159,0.208,5.827,1.279c-0.472-0.882-0.889-1.75-1.25-2.604c-3.479-8.264-1.71-15.08-0.285-18.515l-6.936-2.876
	c-3.528,8.503-10.811,12.301-17.365,13.968c1.872,0.743,3.488,2.146,4.398,4.174c-3.95-3.515-8.389-4.396-13.371-2.591
	c1.899-1.741,4.399-2.413,6.771-2.136c-1.785-1.241-3.94-1.979-6.276-1.979c-6.111,0-11.069,4.96-11.069,11.075
	c0,5.816,4.493,10.581,10.196,11.022c0.289,0.027,0.578,0.049,0.874,0.049c0.403,0,0.801-0.024,1.195-0.066
	c1.287,2.547,3.526,4.521,6.252,5.466c-0.985-1.601-1.444-3.54-1.089-5.591c1.302,5.128,4.502,8.335,9.63,9.63
	c-2.933,0.435-5.737-0.736-7.582-2.771c-0.076,0.518-0.13,1.035-0.13,1.573c0,5.803,4.469,10.556,10.151,11.022
	c0.305,0.028,0.609,0.049,0.922,0.049c4.668,0,8.655-2.895,10.282-6.982c1.804,1.27,3.997,2.025,6.371,2.025
	c6.115,0,11.071-4.959,11.071-11.073C59.476,90.812,54.712,85.943,48.766,85.751z M26.763,95.329c-4.467-3.316-4.658-10.346,0-13.62
	C24.063,86.258,24.05,90.778,26.763,95.329z"/>
<linearGradient id="SVGID_1_" gradientUnits="userSpaceOnUse" x1="9.4297" y1="83.4629" x2="95.599" y2="-2.7065">
	<stop  offset="0" style="stop-color:#0CA8AD"/>
	<stop  offset="1" style="stop-color:#00A79D"/>
</linearGradient>
<path fill="url(#SVGID_1_)" d="M67.657,3.062c-0.571-1.386-2.164-2.042-3.546-1.469c-9.032,3.738-17.574,7.731-22.93,15.537
	c-2.826,4.116-4.569,8.967-5.533,13.969C29.539,34.078,23.474,46.35,23.474,46.35s3.621,1.134,7.018,2.053
	c1.834,0.498,3.606,0.932,4.706,1.089c0.242,1.857,0.537,3.629,0.902,5.259c0.192,0.856,0.795,1.575,1.607,1.918l9.635,3.988
	c0.67,0.277,1.417,0.274,2.08,0.003c0.139-0.059,3.294-2.149,4.771-3.296c0.45,0.338,1.077,0.751,1.793,1.195
	c3.329,2.065,8.717,4.887,8.717,4.887s4.4-12.962,2.181-19.385c2.867-4.222,5.065-8.885,5.975-13.789
	C74.601,20.973,71.245,11.723,67.657,3.062z M55.885,31.343c-2.812,0-5.088-2.277-5.088-5.087c0-2.81,2.276-5.09,5.088-5.09
	c2.811,0,5.087,2.28,5.087,5.09C60.972,29.065,58.696,31.343,55.885,31.343z"/>
</svg>
