<?xml version="1.0" encoding="utf-8"?>
<!-- Generator: Adobe Illustrator 16.0.4, SVG Export Plug-In . SVG Version: 6.00 Build 0)  -->
<!DOCTYPE svg PUBLIC "-//W3C//DTD SVG 1.1//EN" "http://www.w3.org/Graphics/SVG/1.1/DTD/svg11.dtd">
<svg version="1.1" id="Layer_1" xmlns="http://www.w3.org/2000/svg" xmlns:xlink="http://www.w3.org/1999/xlink" x="0px" y="0px"
	 width="255.121px" height="66.968px" viewBox="0 0 255.121 66.968" enable-background="new 0 0 255.121 66.968"
	 xml:space="preserve">
<g>
	<path fill="#73879B" d="M27.603,31.876c0,1.734-0.297,3.316-0.892,4.746c-0.594,1.43-1.453,2.648-2.577,3.662
		c-1.124,1.01-2.489,1.791-4.095,2.336c-1.606,0.547-3.42,0.818-5.444,0.818c-2.022,0-3.838-0.271-5.444-0.818
		s-2.971-1.326-4.095-2.336c-1.124-1.012-1.983-2.232-2.578-3.662c-0.595-1.43-0.891-3.012-0.891-4.746V13.472
		c0.354-0.062,0.916-0.152,1.687-0.264c0.771-0.113,1.509-0.168,2.215-0.168c0.739,0,1.39,0.055,1.952,0.168
		c0.562,0.111,1.036,0.312,1.422,0.602c0.385,0.289,0.674,0.691,0.867,1.205c0.193,0.516,0.289,1.189,0.289,2.023v14.695
		c0,1.539,0.425,2.744,1.276,3.611s1.952,1.301,3.3,1.301c1.381,0,2.489-0.434,3.325-1.301c0.834-0.867,1.252-2.072,1.252-3.611
		v-18.26c0.353-0.062,0.916-0.152,1.687-0.266c0.771-0.111,1.509-0.168,2.215-0.168c0.739,0,1.39,0.057,1.952,0.168
		c0.562,0.113,1.036,0.314,1.421,0.604s0.675,0.691,0.867,1.205c0.193,0.514,0.29,1.188,0.29,2.023v14.836H27.603z"/>
	<path fill="#73879B" d="M37.334,42.476c-0.354,0.098-0.908,0.191-1.662,0.289c-0.756,0.096-1.502,0.145-2.241,0.145
		c-0.739,0-1.39-0.057-1.951-0.168c-0.562-0.111-1.035-0.314-1.421-0.604c-0.385-0.287-0.674-0.688-0.867-1.203
		c-0.193-0.514-0.289-1.188-0.289-2.023V16.22c0-0.674,0.185-1.197,0.554-1.564c0.37-0.371,0.875-0.67,1.518-0.893
		c1.091-0.387,2.336-0.668,3.733-0.844c1.397-0.176,2.802-0.266,4.215-0.266c4.432,0,7.82,0.947,10.166,2.844
		c2.344,1.895,3.516,4.463,3.516,7.707c0,1.574-0.248,2.996-0.746,4.264c-0.499,1.27-1.237,2.361-2.216,3.277
		c-0.98,0.916-2.216,1.621-3.709,2.119c-1.493,0.498-3.22,0.746-5.179,0.746h-3.42L37.334,42.476L37.334,42.476z M39.839,27.011
		c1.349,0,2.385-0.312,3.106-0.939c0.724-0.627,1.085-1.582,1.085-2.867c0-1.221-0.377-2.16-1.132-2.818
		c-0.755-0.658-1.854-0.988-3.3-0.988c-0.514,0-0.939,0.01-1.276,0.025s-0.683,0.057-1.036,0.119v7.467h2.553V27.011z"/>
</g>
<path fill="#73879B" d="M73.633,48.736c0.808,0.986,1.226,2.289,0.987,3.676c-0.732-2.881-2.532-4.686-5.417-5.416
	c1.188-0.176,2.338,0.117,3.277,0.721c-0.265-0.496-0.5-0.984-0.703-1.465c-1.958-4.648-0.962-8.482-0.161-10.414l-3.9-1.617
	c-1.984,4.783-6.08,6.918-9.767,7.855c1.053,0.42,1.962,1.209,2.474,2.348c-2.222-1.977-4.718-2.471-7.52-1.457
	c1.068-0.979,2.474-1.357,3.808-1.201c-1.004-0.699-2.216-1.113-3.53-1.113c-3.437,0-6.226,2.789-6.226,6.229
	c0,3.271,2.527,5.951,5.734,6.199c0.163,0.016,0.325,0.025,0.491,0.025c0.227,0,0.451-0.014,0.672-0.037
	c0.724,1.434,1.983,2.543,3.517,3.074c-0.554-0.9-0.812-1.99-0.613-3.143c0.732,2.883,2.532,4.686,5.417,5.416
	c-1.649,0.244-3.227-0.416-4.264-1.559c-0.042,0.291-0.073,0.58-0.073,0.885c0,3.264,2.513,5.936,5.709,6.199
	c0.171,0.016,0.343,0.027,0.519,0.027c2.625,0,4.867-1.629,5.783-3.928c1.014,0.715,2.248,1.139,3.583,1.139
	c3.44,0,6.227-2.789,6.227-6.227C79.655,51.583,76.977,48.845,73.633,48.736z M61.258,54.123c-2.512-1.865-2.62-5.816,0-7.66
	C59.739,49.021,59.732,51.562,61.258,54.123z"/>
<linearGradient id="SVGID_1_" gradientUnits="userSpaceOnUse" x1="59.8667" y1="43.5747" x2="108.3293" y2="92.0372" gradientTransform="matrix(1 0 0 -1 -8.3599 91.0225)">
	<stop  offset="0" style="stop-color:#0CA8AD"/>
	<stop  offset="1" style="stop-color:#00A79D"/>
</linearGradient>
<path fill="url(#SVGID_1_)" d="M84.258,2.23c-0.322-0.779-1.218-1.148-1.995-0.826c-5.08,2.104-9.884,4.348-12.897,8.738
	c-1.589,2.314-2.569,5.043-3.111,7.855c-3.436,1.676-6.847,8.578-6.847,8.578s2.037,0.639,3.947,1.154
	c1.032,0.279,2.028,0.523,2.646,0.613c0.136,1.043,0.302,2.041,0.507,2.957c0.108,0.482,0.447,0.887,0.904,1.08l5.419,2.242
	c0.376,0.158,0.797,0.154,1.169,0.002c0.078-0.033,1.853-1.209,2.684-1.854c0.253,0.189,0.605,0.422,1.009,0.672
	c1.872,1.162,4.902,2.748,4.902,2.748s2.475-7.291,1.227-10.902c1.613-2.375,2.849-4.996,3.361-7.754
	C88.162,12.304,86.274,7.101,84.258,2.23z M77.635,18.136c-1.581,0-2.861-1.281-2.861-2.861c0-1.582,1.281-2.863,2.861-2.863
	c1.582,0,2.862,1.281,2.862,2.863C80.498,16.855,79.217,18.136,77.635,18.136z"/>
<g>
	<path fill="#73879B" d="M117.891,27.585c0,2.516-0.394,4.703-1.174,6.561c-0.783,1.859-1.888,3.396-3.313,4.613
		c-1.425,1.217-3.13,2.125-5.114,2.725c-1.984,0.602-4.166,0.9-6.541,0.9c-1.174,0-2.467-0.049-3.878-0.145
		c-1.411-0.1-2.69-0.287-3.836-0.566V13.5c1.146-0.279,2.425-0.469,3.836-0.566c1.412-0.098,2.704-0.146,3.878-0.146
		c2.375,0,4.557,0.301,6.541,0.902s3.689,1.51,5.114,2.727c1.426,1.213,2.53,2.752,3.313,4.609
		C117.498,22.884,117.891,25.07,117.891,27.585z M102.084,38.824c3.856,0,6.735-0.986,8.637-2.957
		c1.899-1.971,2.851-4.73,2.851-8.281c0-3.547-0.95-6.311-2.851-8.279c-1.901-1.971-4.779-2.957-8.637-2.957
		c-1.146,0-2.033,0.016-2.662,0.043s-1.07,0.057-1.322,0.084v22.219c0.252,0.029,0.693,0.059,1.322,0.086
		S100.938,38.824,102.084,38.824z"/>
	<path fill="#73879B" d="M138.35,42.134c-0.477-1.256-0.922-2.494-1.342-3.711c-0.42-1.215-0.853-2.451-1.299-3.709h-13.166
		l-2.641,7.42h-4.234c1.117-3.074,2.166-5.916,3.145-8.531c0.979-2.613,1.936-5.096,2.871-7.441c0.937-2.348,1.867-4.592,2.789-6.73
		c0.922-2.137,1.887-4.256,2.894-6.35h3.731c1.007,2.094,1.97,4.213,2.895,6.35c0.92,2.139,1.85,4.383,2.787,6.73
		c0.936,2.348,1.893,4.83,2.871,7.441c0.979,2.613,2.025,5.457,3.145,8.531H138.35z M134.535,31.359
		c-0.896-2.432-1.784-4.785-2.663-7.064c-0.881-2.277-1.796-4.465-2.746-6.561c-0.979,2.096-1.906,4.283-2.787,6.561
		c-0.882,2.279-1.756,4.633-2.621,7.064H134.535z"/>
</g>
<g>
	<path fill="#73879B" d="M158.364,13.08v3.521h-9.141v25.533h-4.065V16.601h-9.14V13.08H158.364z"/>
</g>
<g>
	<path fill="#73879B" d="M159.817,42.134V13.08h17.734v3.48h-13.67v8.635h12.159v3.396h-12.159v10.062h14.717v3.48H159.817
		L159.817,42.134z"/>
	<path fill="#73879B" d="M193.776,29.976c0.447,0.561,1.012,1.293,1.697,2.201s1.392,1.914,2.119,3.018
		c0.726,1.105,1.444,2.258,2.158,3.461c0.711,1.201,1.319,2.361,1.823,3.479h-4.442c-0.562-1.061-1.17-2.139-1.826-3.229
		s-1.319-2.131-1.989-3.123c-0.673-0.992-1.336-1.922-1.992-2.789c-0.655-0.865-1.25-1.619-1.782-2.264
		c-0.361,0.029-0.732,0.043-1.111,0.043c-0.377,0-0.76,0-1.151,0h-3.647v11.361h-4.066V13.5c1.146-0.279,2.424-0.469,3.836-0.566
		c1.411-0.098,2.706-0.146,3.879-0.146c4.079,0,7.189,0.77,9.329,2.307c2.137,1.539,3.206,3.83,3.206,6.875
		c0,1.93-0.51,3.578-1.528,4.947C197.262,28.287,195.76,29.304,193.776,29.976z M187.613,16.349c-1.731,0-3.06,0.043-3.981,0.127
		v10.941h2.894c1.396,0,2.655-0.07,3.772-0.209c1.116-0.141,2.061-0.406,2.83-0.797c0.769-0.391,1.362-0.943,1.78-1.656
		c0.421-0.713,0.629-1.656,0.629-2.83c0-1.09-0.208-1.998-0.629-2.725c-0.418-0.729-0.983-1.303-1.696-1.721
		c-0.714-0.42-1.553-0.713-2.518-0.879C189.73,16.433,188.703,16.349,187.613,16.349z"/>
</g>
<g>
	
		<linearGradient id="SVGID_2_" gradientUnits="userSpaceOnUse" x1="234.9351" y1="51.2739" x2="240.5249" y2="51.2739" gradientTransform="matrix(1 0 0 -1 -8.3599 91.0225)">
		<stop  offset="0" style="stop-color:#0CA8AD"/>
		<stop  offset="1" style="stop-color:#00A79D"/>
	</linearGradient>
	<path fill="url(#SVGID_2_)" d="M232.165,39.748c0,0.752-0.25,1.404-0.748,1.961c-0.503,0.557-1.184,0.834-2.047,0.834
		c-0.861,0-1.543-0.277-2.045-0.834c-0.499-0.557-0.75-1.209-0.75-1.961c0-0.75,0.251-1.402,0.75-1.961
		c0.502-0.555,1.184-0.832,2.045-0.832c0.863,0,1.544,0.277,2.047,0.832C231.915,38.343,232.165,38.998,232.165,39.748z"/>
</g>
<g>
	<linearGradient id="SVGID_3_" gradientUnits="userSpaceOnUse" x1="204.7446" y1="27.3911" x2="231.4937" y2="27.3911">
		<stop  offset="0" style="stop-color:#0CA8AD"/>
		<stop  offset="1" style="stop-color:#00A79D"/>
	</linearGradient>
	<path fill="url(#SVGID_3_)" d="M231.494,12.818c-1.066,3.084-2.082,5.938-3.05,8.559c-0.967,2.621-1.913,5.109-2.839,7.465
		c-0.925,2.355-1.844,4.605-2.755,6.75c-0.911,2.146-1.844,4.27-2.797,6.373h-3.827c-0.953-2.104-1.886-4.227-2.797-6.373
		c-0.911-2.145-1.837-4.395-2.775-6.75c-0.94-2.355-1.9-4.844-2.881-7.465c-0.982-2.621-1.991-5.475-3.028-8.559h4.5
		c1.514,4.43,3,8.691,4.458,12.785s2.958,7.936,4.5,11.523c1.542-3.561,3.042-7.395,4.501-11.502
		c1.457-4.107,2.929-8.377,4.416-12.807H231.494z"/>
	<linearGradient id="SVGID_4_" gradientUnits="userSpaceOnUse" x1="233.7222" y1="27.3696" x2="254.1206" y2="27.3696">
		<stop  offset="0" style="stop-color:#0CA8AD"/>
		<stop  offset="1" style="stop-color:#00A79D"/>
	</linearGradient>
	<path fill="url(#SVGID_4_)" d="M237.886,41.964c0.168-2.047,0.519-4.178,1.051-6.393s1.185-4.389,1.956-6.52
		c0.771-2.131,1.633-4.143,2.587-6.035c0.952-1.893,1.92-3.525,2.901-4.9h-12.659v-5.342h20.398v4.543
		c-0.898,0.982-1.887,2.342-2.966,4.08s-2.103,3.707-3.07,5.908c-0.967,2.201-1.808,4.564-2.523,7.088
		c-0.715,2.523-1.156,5.047-1.324,7.57H237.886z"/>
</g>
</svg>
