<?xml version="1.0" encoding="utf-8"?>
<!-- Generator: Adobe Illustrator 16.0.4, SVG Export Plug-In . SVG Version: 6.00 Build 0)  -->
<!DOCTYPE svg PUBLIC "-//W3C//DTD SVG 1.1//EN" "http://www.w3.org/Graphics/SVG/1.1/DTD/svg11.dtd">
<svg version="1.1" xmlns="http://www.w3.org/2000/svg" xmlns:xlink="http://www.w3.org/1999/xlink" x="0px" y="0px"
	 width="255.121px" height="66.968px" viewBox="0 0 255.121 66.968" enable-background="new 0 0 255.121 66.968"
	 xml:space="preserve">
<g id="Layer_1">
	<g>
		<path fill="#FFFFFF" d="M27.361,33.058c0,1.735-0.297,3.317-0.892,4.747c-0.594,1.43-1.453,2.648-2.577,3.662
			c-1.124,1.01-2.489,1.791-4.095,2.336c-1.606,0.547-3.42,0.818-5.444,0.818c-2.022,0-3.838-0.271-5.444-0.818
			s-2.971-1.326-4.095-2.336c-1.124-1.012-1.983-2.232-2.578-3.662c-0.595-1.43-0.891-3.012-0.891-4.747V14.654
			c0.354-0.063,0.916-0.152,1.687-0.265s1.509-0.168,2.215-0.168c0.739,0,1.39,0.056,1.952,0.168s1.036,0.313,1.422,0.603
			c0.385,0.289,0.674,0.69,0.867,1.205c0.193,0.515,0.289,1.188,0.289,2.022v14.695c0,1.54,0.425,2.745,1.276,3.612
			s1.952,1.301,3.3,1.301c1.381,0,2.489-0.434,3.325-1.301c0.834-0.867,1.252-2.072,1.252-3.612v-18.26
			c0.353-0.062,0.916-0.152,1.687-0.266c0.771-0.111,1.509-0.168,2.215-0.168c0.739,0,1.39,0.057,1.952,0.168
			c0.562,0.113,1.036,0.314,1.421,0.604s0.675,0.691,0.867,1.205c0.193,0.514,0.29,1.188,0.29,2.023v14.836H27.361z"/>
		<path fill="#FFFFFF" d="M37.093,43.658c-0.354,0.098-0.908,0.191-1.662,0.289c-0.756,0.096-1.502,0.145-2.241,0.145
			c-0.739,0-1.39-0.057-1.951-0.168c-0.562-0.111-1.035-0.314-1.421-0.604c-0.385-0.287-0.674-0.688-0.867-1.203
			c-0.193-0.514-0.289-1.188-0.289-2.023V17.401c0-0.674,0.185-1.196,0.554-1.564c0.37-0.371,0.875-0.669,1.518-0.893
			c1.091-0.387,2.336-0.667,3.733-0.844c1.397-0.176,2.802-0.266,4.215-0.266c4.432,0,7.82,0.948,10.166,2.844
			c2.344,1.895,3.516,4.463,3.516,7.707c0,1.574-0.248,2.996-0.746,4.264c-0.499,1.27-1.237,2.361-2.216,3.277
			c-0.98,0.916-2.216,1.621-3.709,2.12c-1.493,0.498-3.22,0.746-5.179,0.746h-3.42L37.093,43.658L37.093,43.658z M39.598,28.192
			c1.349,0,2.385-0.312,3.106-0.939c0.724-0.626,1.085-1.582,1.085-2.867c0-1.22-0.377-2.16-1.132-2.818
			c-0.755-0.658-1.854-0.987-3.3-0.987c-0.514,0-0.939,0.009-1.276,0.024s-0.683,0.057-1.036,0.119v7.467h2.553V28.192z"/>
	</g>
	<path fill="#FFFFFF" d="M73.392,49.917c0.808,0.986,1.226,2.289,0.987,3.676c-0.732-2.881-2.532-4.686-5.417-5.416
		c1.188-0.176,2.338,0.117,3.277,0.721c-0.265-0.496-0.5-0.984-0.703-1.465c-1.958-4.648-0.962-8.482-0.161-10.414l-3.9-1.617
		c-1.984,4.783-6.08,6.918-9.767,7.855c1.053,0.42,1.962,1.209,2.474,2.348c-2.222-1.977-4.718-2.471-7.52-1.457
		c1.068-0.979,2.474-1.357,3.808-1.201c-1.004-0.699-2.216-1.113-3.53-1.113c-3.437,0-6.226,2.789-6.226,6.229
		c0,3.271,2.527,5.951,5.734,6.199c0.163,0.016,0.325,0.025,0.491,0.025c0.227,0,0.451-0.014,0.672-0.037
		c0.724,1.434,1.983,2.543,3.517,3.074c-0.554-0.9-0.812-1.99-0.613-3.143c0.732,2.883,2.532,4.686,5.417,5.416
		c-1.649,0.244-3.227-0.416-4.264-1.559c-0.042,0.291-0.073,0.58-0.073,0.885c0,3.264,2.513,5.936,5.709,6.199
		c0.171,0.016,0.343,0.027,0.519,0.027c2.625,0,4.867-1.629,5.783-3.928c1.014,0.715,2.248,1.139,3.583,1.139
		c3.44,0,6.227-2.789,6.227-6.227C79.414,52.765,76.735,50.027,73.392,49.917z M61.017,55.304c-2.512-1.865-2.62-5.816,0-7.66
		C59.498,50.203,59.491,52.744,61.017,55.304z"/>
	
		<linearGradient id="SVGID_1_" gradientUnits="userSpaceOnUse" x1="59.627" y1="42.3931" x2="108.0882" y2="90.8542" gradientTransform="matrix(1 0 0 -1 -8.3599 91.0225)">
		<stop  offset="0" style="stop-color:#0CA8AD"/>
		<stop  offset="1" style="stop-color:#00A79D"/>
	</linearGradient>
	<path fill="url(#SVGID_1_)" d="M84.017,3.411c-0.322-0.779-1.218-1.148-1.995-0.826c-5.08,2.104-9.884,4.348-12.897,8.738
		c-1.589,2.314-2.569,5.043-3.111,7.855c-3.436,1.676-6.847,8.578-6.847,8.578s2.037,0.639,3.947,1.154
		c1.032,0.279,2.028,0.523,2.646,0.613c0.136,1.044,0.302,2.041,0.507,2.957c0.108,0.482,0.447,0.887,0.904,1.08l5.419,2.243
		c0.376,0.158,0.797,0.154,1.169,0.002c0.078-0.033,1.853-1.209,2.684-1.854c0.253,0.19,0.605,0.422,1.009,0.672
		c1.872,1.162,4.902,2.748,4.902,2.748s2.475-7.291,1.227-10.903c1.613-2.375,2.849-4.996,3.361-7.754
		C87.92,13.485,86.033,8.283,84.017,3.411z M77.394,19.317c-1.581,0-2.861-1.281-2.861-2.861c0-1.581,1.281-2.863,2.861-2.863
		c1.582,0,2.862,1.282,2.862,2.863C80.256,18.036,78.976,19.317,77.394,19.317z"/>
	<g>
		<path fill="#FFFFFF" d="M117.65,28.767c0,2.517-0.394,4.703-1.174,6.561c-0.783,1.859-1.888,3.396-3.313,4.613
			c-1.425,1.217-3.13,2.125-5.114,2.725c-1.984,0.602-4.166,0.9-6.541,0.9c-1.174,0-2.467-0.049-3.878-0.145
			c-1.411-0.1-2.69-0.287-3.836-0.566V14.681c1.146-0.279,2.425-0.469,3.836-0.565c1.412-0.099,2.704-0.147,3.878-0.147
			c2.375,0,4.557,0.301,6.541,0.902s3.689,1.51,5.114,2.727c1.426,1.213,2.53,2.752,3.313,4.61
			C117.256,24.065,117.65,26.252,117.65,28.767z M101.843,40.005c3.856,0,6.735-0.986,8.637-2.957
			c1.899-1.971,2.851-4.731,2.851-8.282c0-3.547-0.95-6.31-2.851-8.278c-1.901-1.972-4.779-2.957-8.637-2.957
			c-1.146,0-2.033,0.015-2.662,0.042s-1.07,0.057-1.322,0.084v22.219c0.252,0.029,0.693,0.059,1.322,0.086
			S100.697,40.005,101.843,40.005z"/>
		<path fill="#FFFFFF" d="M138.109,43.316c-0.477-1.256-0.922-2.494-1.342-3.711c-0.42-1.215-0.853-2.451-1.299-3.709h-13.166
			l-2.641,7.42h-4.234c1.117-3.074,2.166-5.916,3.145-8.531c0.979-2.614,1.936-5.096,2.871-7.442
			c0.937-2.348,1.867-4.592,2.789-6.729s1.887-4.257,2.894-6.351h3.731c1.007,2.094,1.97,4.213,2.895,6.351
			c0.92,2.138,1.85,4.382,2.787,6.729c0.936,2.348,1.893,4.83,2.871,7.442c0.979,2.613,2.025,5.457,3.145,8.531H138.109z
			 M134.293,32.541c-0.896-2.433-1.784-4.786-2.663-7.065c-0.881-2.276-1.796-4.465-2.746-6.561
			c-0.979,2.096-1.906,4.284-2.787,6.561c-0.882,2.279-1.756,4.633-2.621,7.065H134.293z"/>
	</g>
	<g>
		<path fill="#FFFFFF" d="M158.123,14.261v3.522h-9.141v25.533h-4.065V17.783h-9.14v-3.522H158.123z"/>
	</g>
	<g>
		<path fill="#FFFFFF" d="M159.576,43.316V14.261h17.734v3.48h-13.67v8.636h12.159v3.396H163.64v10.063h14.717v3.48H159.576
			L159.576,43.316z"/>
		<path fill="#FFFFFF" d="M193.535,31.157c0.447,0.561,1.012,1.293,1.697,2.201c0.686,0.909,1.392,1.915,2.119,3.018
			c0.726,1.105,1.444,2.258,2.158,3.461c0.711,1.201,1.319,2.361,1.823,3.479h-4.442c-0.562-1.061-1.17-2.139-1.826-3.229
			s-1.319-2.131-1.989-3.123c-0.673-0.992-1.336-1.922-1.992-2.789c-0.655-0.866-1.25-1.62-1.782-2.263
			c-0.361,0.028-0.732,0.042-1.111,0.042c-0.377,0-0.76,0-1.151,0h-3.647v11.362h-4.066V14.681c1.146-0.279,2.424-0.469,3.836-0.565
			c1.411-0.099,2.706-0.147,3.879-0.147c4.079,0,7.189,0.771,9.329,2.307c2.137,1.539,3.206,3.83,3.206,6.875
			c0,1.93-0.51,3.578-1.528,4.947C197.021,29.468,195.519,30.486,193.535,31.157z M187.372,17.531c-1.731,0-3.06,0.042-3.981,0.126
			v10.941h2.894c1.396,0,2.655-0.069,3.772-0.209c1.116-0.141,2.061-0.406,2.83-0.797c0.769-0.391,1.362-0.943,1.78-1.656
			c0.421-0.713,0.629-1.656,0.629-2.83c0-1.09-0.208-1.998-0.629-2.725c-0.418-0.729-0.983-1.302-1.696-1.72
			c-0.714-0.42-1.553-0.713-2.518-0.88C189.489,17.615,188.461,17.531,187.372,17.531z"/>
	</g>
	<g>
		
			<linearGradient id="SVGID_2_" gradientUnits="userSpaceOnUse" x1="234.6929" y1="50.0923" x2="240.2827" y2="50.0923" gradientTransform="matrix(1 0 0 -1 -8.3599 91.0225)">
			<stop  offset="0" style="stop-color:#0CA8AD"/>
			<stop  offset="1" style="stop-color:#00A79D"/>
		</linearGradient>
		<path fill="url(#SVGID_2_)" d="M231.923,40.929c0,0.752-0.25,1.404-0.748,1.961c-0.503,0.557-1.184,0.834-2.047,0.834
			c-0.861,0-1.543-0.277-2.045-0.834c-0.499-0.557-0.75-1.209-0.75-1.961c0-0.75,0.251-1.402,0.75-1.961
			c0.502-0.555,1.184-0.832,2.045-0.832c0.863,0,1.544,0.277,2.047,0.832C231.673,39.525,231.923,40.179,231.923,40.929z"/>
	</g>
	<g>
		<linearGradient id="SVGID_3_" gradientUnits="userSpaceOnUse" x1="204.5034" y1="28.5728" x2="231.2524" y2="28.5728">
			<stop  offset="0" style="stop-color:#0CA8AD"/>
			<stop  offset="1" style="stop-color:#00A79D"/>
		</linearGradient>
		<path fill="url(#SVGID_3_)" d="M231.252,13.999c-1.066,3.085-2.082,5.938-3.05,8.559c-0.967,2.622-1.913,5.11-2.839,7.466
			c-0.925,2.355-1.844,4.605-2.755,6.75c-0.911,2.146-1.844,4.27-2.797,6.373h-3.827c-0.953-2.104-1.886-4.227-2.797-6.373
			c-0.911-2.145-1.837-4.394-2.775-6.75c-0.94-2.355-1.9-4.844-2.881-7.466c-0.982-2.621-1.991-5.474-3.028-8.559h4.5
			c1.514,4.431,3,8.692,4.458,12.786s2.958,7.935,4.5,11.523c1.542-3.561,3.042-7.394,4.501-11.502
			c1.457-4.107,2.929-8.376,4.416-12.807H231.252z"/>
		<linearGradient id="SVGID_4_" gradientUnits="userSpaceOnUse" x1="233.481" y1="28.5513" x2="253.8794" y2="28.5513">
			<stop  offset="0" style="stop-color:#0CA8AD"/>
			<stop  offset="1" style="stop-color:#00A79D"/>
		</linearGradient>
		<path fill="url(#SVGID_4_)" d="M237.645,43.146c0.168-2.047,0.519-4.178,1.051-6.393s1.185-4.388,1.956-6.52
			c0.771-2.13,1.633-4.143,2.587-6.035c0.952-1.893,1.92-3.525,2.901-4.899h-12.659v-5.342h20.398v4.542
			c-0.898,0.982-1.887,2.342-2.966,4.08c-1.079,1.739-2.103,3.708-3.07,5.909c-0.967,2.201-1.808,4.563-2.523,7.087
			c-0.715,2.523-1.156,5.047-1.324,7.57H237.645z"/>
	</g>
</g>
<g id="Layer_2">
</g>
</svg>
